HIERARCHY
ROOT Hips
{
	OFFSET 0.000000 0.000000 0.000000 
	CHANNELS 6 Xposition Yposition Zposition Yrotation Zrotation Xrotation 
	JOINT Lumbar
	{
		OFFSET 0.000000 0.000000 0.000000 
		CHANNELS 3 Zrotation Xrotation Yrotation
		JOINT Neck
		{
			OFFSET 0.000000 0.445665 0.000000 
			CHANNELS 3 Zrotation Xrotation Yrotation
			End Site
			{
				OFFSET 0.000000 0.227535 0.000000 
			}
		}
		JOINT RightShoulder
		{
			OFFSET 0.019635 0.377685 0.194865 
			CHANNELS 3 Zrotation Xrotation Yrotation
			JOINT RightElbow
			{
				OFFSET 0.000000 -0.243375 0.000000 
				CHANNELS 2 Zrotation Yrotation
				JOINT RightWrist
				{
					OFFSET 0.000000 -0.264825 0.000000 
					CHANNELS 2 Zrotation Xrotation
					End Site
					{
						OFFSET 0.006600 -0.176220 0.000990 
					}
				}
			}
		}
		JOINT LeftShoulder
		{
			OFFSET 0.019635 0.377685 -0.194865 
			CHANNELS 3 Zrotation Xrotation Yrotation
			JOINT LeftElbow
			{
				OFFSET 0.000000 -0.243375 0.000000 
				CHANNELS 2 Zrotation Yrotation
				JOINT LeftWrist
				{
					OFFSET 0.000000 -0.264825 0.000000 
					CHANNELS 2 Zrotation Xrotation
					End Site
					{
						OFFSET 0.006600 -0.176220 -0.000990 
					}
				}
			}
		}
	}
	JOINT RightHip
	{
		OFFSET 0.052140 -0.069960 0.075570 
		CHANNELS 3 Zrotation Xrotation Yrotation
		JOINT RightKnee
		{
			OFFSET 0.000000 -0.402270 0.000000 
			CHANNELS 1 Zrotation
			JOINT RightAnkle
			{
				OFFSET 0.000000 -0.404085 0.000000 
				CHANNELS 3 Zrotation Xrotation Yrotation
				End Site
				{
					OFFSET 0.204105 -0.089430 0.008415 
				}
			}
		}
	}
	JOINT LeftHip
	{
		OFFSET 0.052140 -0.069960 -0.075570 
		CHANNELS 3 Zrotation Xrotation Yrotation
		JOINT LeftKnee
		{
			OFFSET 0.000000 -0.402270 0.000000 
			CHANNELS 1 Zrotation
			JOINT LeftAnkle
			{
				OFFSET 0.000000 -0.404085 0.000000 
				CHANNELS 3 Zrotation Xrotation Yrotation
				End Site
				{
					OFFSET 0.204105 -0.089430 -0.008415 
				}
			}
		}
	}
}
MOTION
Frames: 11
Frame Time: 0.02
0.00437 0.00306 0.00725 81.27536 -25.48753 -11.3227 41.12902 3.02429 5.76808 -20.21692 5.8608 -0.71122 0.99576 -19.2115 5.17841 37.90283 92.26839 6.2096 0.41956 -43.90234 8.51245 10.40687 33.34098 -154.2291 35.27776 -7.67942 31.73122 -0.72189 -10.79681 -21.51544 -7.7741 -4.6227 -3.15419 43.99246 11.25973 1.52083 -32.30948 -9.0205 1.71954 1.55696
0.00263 0.00255 0.00942 81.96559 -25.73903 -11.4336 41.25741 2.96418 5.29352 -20.06836 5.79023 -0.71144 -0.28232 -18.65391 4.87124 37.01738 92.32571 6.19295 0.48294 -43.13681 9.23922 9.42224 33.92668 -149.73701 33.60068 -7.04203 32.02682 -0.76522 -10.76244 -21.61328 -7.81268 -4.6758 -3.18747 43.51659 11.508 1.20686 -32.36563 -9.13329 1.97495 1.71035
0.00088 0.00204 0.01158 82.65451 -25.98997 -11.54444 41.38548 2.90421 4.81936 -19.92011 5.71932 -0.71167 -1.55831 -18.0978 4.56506 36.13474 92.38312 6.17624 0.5462 -42.37197 9.96424 8.4401 34.51141 -145.25819 31.92826 -6.40658 32.32165 -0.80851 -10.72827 -21.71087 -7.85126 -4.72879 -3.22069 43.04192 11.75539 0.89489 -32.42146 -9.24616 2.22977 1.8634
-0.00086 0.00153 0.01375 83.34272 -26.24079 -11.65507 41.51355 2.8443 4.34608 -19.77198 5.64889 -0.71188 -2.83275 -17.54188 4.25883 35.252 92.44004 6.15954 0.60935 -41.60855 10.68885 7.45846 35.09542 -140.77986 30.25626 -5.77115 32.61643 -0.85169 -10.69404 -21.80841 -7.88974 -4.78173 -3.25388 42.56756 12.00292 0.58203 -32.47747 -9.35868 2.48443 2.01634
-0.0026 0.00101 0.01592 84.03197 -26.49193 -11.7656 41.64174 2.78422 3.87283 -19.62361 5.579 -0.7121 -4.1086 -16.98458 3.95163 34.36649 92.4975 6.14314 0.67271 -40.84499 11.41503 6.47439 35.68014 -136.28845 28.57977 -5.13378 32.91175 -0.89494 -10.65949 -21.90616 -7.9282 -4.83474 -3.28711 42.09188 12.25125 0.26688 -32.53372 -9.47094 2.73959 2.16955
-0.00435 0.0005 0.01807 84.7202 -26.74235 -11.87703 41.76946 2.72444 3.39682 -19.47562 5.50595 -0.71233 -5.38478 -16.43104 3.64762 33.48998 92.55522 6.12591 0.73581 -40.07751 12.13757 5.4963 36.26488 -131.83632 26.91601 -4.50239 33.20544 -0.93835 -10.62608 -22.00341 -7.96702 -4.88771 -3.32031 41.61924 12.49659 -0.03835 -32.58856 -9.58509 2.99368 2.32226
-0.00608 -1e-05 0.02025 85.40955 -26.99434 -11.98673 41.89841 2.66426 2.92679 -19.32703 5.43937 -0.71254 -6.65884 -15.8705 3.33748 32.59621 92.6104 6.1098 0.79908 -39.31893 12.86658 4.50763 36.84877 -127.31041 25.22859 -3.85971 33.50254 -0.9812 -10.59062 -22.10157 -8.00503 -4.9407 -3.35353 41.14159 12.74796 -0.36342 -32.64659 -9.69535 3.24964 2.47582
-0.00783 -0.00052 0.02241 86.09818 -27.24415 -12.09766 42.02543 2.6042 2.45144 -19.17898 5.36677 -0.71277 -7.93494 -15.3165 3.03308 31.71857 92.6715 6.09371 0.86272 -38.55184 13.58974 3.52807 37.43376 -122.85191 23.56277 -3.22737 33.79565 -1.02492 -10.55668 -22.19889 -8.04389 -4.99368 -3.38675 40.66751 12.99325 -0.66981 -32.70091 -9.80911 3.50387 2.62858
-0.00962 -0.00104 0.02455 86.78513 -27.49436 -12.21162 42.15332 2.54527 1.96841 -19.03157 5.28688 -0.71299 -9.21406 -14.76987 2.73521 30.85942 92.72571 6.07341 0.92475 -37.77491 14.30565 2.56171 38.01924 -118.47628 21.92341 -2.60768 34.08739 -1.06833 -10.52608 -22.29523 -8.08342 -5.04663 -3.41992 40.20174 13.23325 -0.95484 -32.75373 -9.92761 3.75616 2.78049
-0.01119 -0.00153 0.02681 87.47938 -27.75149 -12.31275 42.28592 2.48279 1.526 -18.8804 5.24915 -0.71319 -10.47748 -14.17897 2.3983 29.89019 92.77708 6.0646 0.98983 -37.05622 15.06301 1.52553 38.59937 -113.62513 20.13193 -1.91522 34.39759 -1.1094 -10.48069 -22.39735 -8.11799 -5.09972 -3.45323 39.69999 13.51014 -1.36717 -32.8243 -10.02024 4.02016 2.93769
-0.01323 -0.00207 0.02881 88.15961 -27.98809 -12.43797 42.40239 2.42592 1.00034 -18.73724 5.1224 -0.71347 -11.77266 -13.68273 2.14474 29.1556 92.86158 6.03972 1.05243 -36.21389 15.73299 0.63287 39.19227 -109.77682 18.66149 -1.37632 34.66205 -1.15803 -10.46368 -22.48718 -8.16369 -5.15253 -3.48631 39.26665 13.70508 -1.50818 -32.85161 -10.16653 4.25907 3.08346
